<svg width="1222" height="604" fill="none" xmlns="http://www.w3.org/2000/svg"><path fill="#F2F2F2" d="M4 0h1218v604H4z"/><path d="M680.584 566.656l-4.873-60.576-13.926 64.057s.184 16.161.645 33.863h17.841c.601-20.236.313-37.344.313-37.344zM429.99 588.199a123.33 123.33 0 0 1-2.898-17.221l-1.949-20.955c-.82-5.739-1.662-10.795-2.509-15.258-6.208-31.823-12.616-32.974-12.616-32.974-.276.211-.543.445-.819.685a20.802 20.802 0 0 0-2.098 2.214c-10.206 12.973-17.13 46.619-20.768 68.939-2.009 12.329-3.01 21.201-3.01 21.201s.91 3.779 2.15 9.17h46.575a82.79 82.79 0 0 0-2.058-15.801z" fill="#F2F2F2"/><path d="M210 255.45c52.467 0 95-38.705 95-86.45 0-47.745-42.533-86.45-95-86.45s-95 38.705-95 86.45c0 47.745 42.533 86.45 95 86.45z" fill="#3F3D56"/><path d="M366.5 451.5s32-22 32-32 22-75 34-46-17 70-17 70-32 58-51 68-35 4-35 4v-27l18.282-27.057A22.597 22.597 0 0 1 366.5 451.5z" fill="#FFB9B9"/><path d="M275.544 298.336S323.5 313.5 328.5 320.5c5 7 7-5 21 41S367 452 367 452s-34.5 11.5-30.5 56.5-6 94-6 94h-12.484l-27.516-85 33-129s-46.913-79.327-47.956-90.164z" fill="#575A89"/><path d="M259.5 256.5c33.137 0 60-26.863 60-60s-26.863-60-60-60-60 26.863-60 60 26.863 60 60 60z" fill="#FFB9B9"/><path d="M282.5 241.5s-17 56-2 64 32 44 32 44l-26 29h-60l-27-30-11-51 15-12s16-40 16-61 63 17 63 17z" fill="#FFB9B9"/><path d="M287.5 303.5s-12-3-5 9 14 34-11 35-50-12-58-39-11-25-14-24-35 34-35 34l11 62 4 222h146s6-64-4-79 9-53 9-53 17-26 4-76-42-91-47-91z" fill="#00AA58"/><path d="M206.5 284.5s-15-7-28 5-42 22-42 28 25 177 8 207-35 78-35 78h83.413s13.587-50 27.587-77 13-103 9-126-23-115-23-115z" fill="#575A89"/><path d="M118.5 549.5l4.87 53h54.047l-4.917-66-54 13z" fill="#FFB9B9"/><path d="M364.5 521.5l13 81h289l25-163-327 82z" fill="#3F3D56"/><path d="M702.5 428.5l3 15-374 90v-13l371-92z" fill="#3F3D56"/><path d="M544.5 455.5l-2 17 22-3-9-17-11 3z" fill="#3F3D56"/><path d="M423.5 283.5s44-3 56 31 40 95 51 104 23 33 21 41" stroke="#3F3D56" stroke-width="5" stroke-miterlimit="10"/><path d="M430 283c0 4.694-4.992 8.5-13 8.5s-12-3.806-12-8.5 3.992-8.5 12-8.5 13 3.806 13 8.5z" fill="#00AA58"/><path d="M356 439s7.5-31.5-6.5-77.5-16-34-21-41-52.956-22.164-52.956-22.164c.343 3.561 5.638 14.517 12.595 27.624a53.207 53.207 0 0 0-5.639-13.46c-7-12 5-9 5-9 5 0 34 41 47 91s-4 76-4 76L356 439z" fill="#575A89"/><path d="M276 298s5.92 22.458 10.96 25.729c5.04 3.271 34.93 34.325 34.93 34.325L318 333l-16-24-4.256-3.088L276 298z" fill="#575A89"/><path opacity=".1" d="M143 367l1.394-51.5s-32.894 14-35.894 74 5 173 16 174 63-11 63-11 8-145 5-164S143 367 143 367z" fill="#000"/><path d="M145.5 315.5h-8.106s-32.894 14-35.894 74 5 173 16 174 63-11 63-11 8-145 5-164-40-73-40-73z" fill="#575A89"/><path d="M188 250c34.242 0 62-31.116 62-69.5S222.242 111 188 111c-34.242 0-62 31.116-62 69.5s27.758 69.5 62 69.5z" fill="#3F3D56"/><path d="M232.5 237c6.904 0 12.5-8.283 12.5-18.5s-5.596-18.5-12.5-18.5-12.5 8.283-12.5 18.5 5.596 18.5 12.5 18.5z" fill="#FFB9B9"/><path d="M126 162c28.167 0 51-22.833 51-51 0-28.166-22.833-51-51-51-28.166 0-51 22.834-51 51 0 28.167 22.834 51 51 51z" fill="#3F3D56"/><path d="M132.592 151.857a51 51 0 0 1-47.69-.76A50.998 50.998 0 0 1 58.7 111.244a50.992 50.992 0 0 0 70.057 54.744 50.991 50.991 0 0 0 31.119-51.906 50.919 50.919 0 0 1-27.283 37.775z" fill="#3F3D56"/><path d="M98.02 119.43a51 51 0 0 1 4.499-67.861 50.996 50.996 0 0 1 21.184-12.45A50.997 50.997 0 0 0 75.53 98.443a50.99 50.99 0 0 0 23.267 34.863 51.004 51.004 0 0 0 41.531 5.652 50.928 50.928 0 0 1-42.307-19.529zM263 176c19.882 0 36-11.641 36-26s-16.118-26-36-26-36 11.641-36 26 16.118 26 36 26z" fill="#3F3D56"/><path opacity=".5" d="M1010.75 81H776a3.247 3.247 0 0 0-3.247 3.247v358.18a3.247 3.247 0 0 0 3.247 3.247h234.75c1.8 0 3.25-1.454 3.25-3.247V84.247a3.245 3.245 0 0 0-3.25-3.247z" fill="url(#paint0_linear)"/><path d="M1007.75 84H779.246A3.245 3.245 0 0 0 776 87.244v350.512a3.245 3.245 0 0 0 3.246 3.244h228.504c1.8 0 3.25-1.453 3.25-3.244V87.244a3.244 3.244 0 0 0-3.25-3.244z" fill="#F2F2F2"/><path opacity=".5" d="M843.115 149.5h-40.517a3.247 3.247 0 0 0-3.247 3.247v35.819a3.248 3.248 0 0 0 3.247 3.248h40.517a3.248 3.248 0 0 0 3.247-3.248v-35.819a3.247 3.247 0 0 0-3.247-3.247z" fill="#00AA58"/><path d="M984.964 149H862.036c-1.124 0-2.036.968-2.036 2.163v.674c0 1.195.912 2.163 2.036 2.163h122.928c1.124 0 2.036-.968 2.036-2.163v-.674c0-1.195-.912-2.163-2.036-2.163zM963.956 164H862.044c-1.129 0-2.044.775-2.044 1.73v.54c0 .955.915 1.73 2.044 1.73h101.912c1.129 0 2.044-.775 2.044-1.73v-.54c0-.955-.915-1.73-2.044-1.73z" fill="#E0E0E0"/><path opacity=".5" d="M843.115 215.316h-40.517a3.247 3.247 0 0 0-3.247 3.247v35.819a3.247 3.247 0 0 0 3.247 3.247h40.517a3.247 3.247 0 0 0 3.247-3.247v-35.819a3.247 3.247 0 0 0-3.247-3.247z" fill="#00AA58"/><path d="M984.964 215H862.036c-1.124 0-2.036.968-2.036 2.163v.674c0 1.195.912 2.163 2.036 2.163h122.928c1.124 0 2.036-.968 2.036-2.163v-.674c0-1.195-.912-2.163-2.036-2.163zM984.964 229H862.036c-1.124 0-2.036.968-2.036 2.163v.674c0 1.195.912 2.163 2.036 2.163h122.928c1.124 0 2.036-.968 2.036-2.163v-.674c0-1.195-.912-2.163-2.036-2.163z" fill="#E0E0E0"/><path opacity=".5" d="M843.115 281.131h-40.517a3.247 3.247 0 0 0-3.247 3.247v35.82a3.247 3.247 0 0 0 3.247 3.247h40.517a3.247 3.247 0 0 0 3.247-3.247v-35.82a3.247 3.247 0 0 0-3.247-3.247z" fill="#00AA58"/><path d="M984.964 281H862.036c-1.124 0-2.036.968-2.036 2.163v.674c0 1.195.912 2.163 2.036 2.163h122.928c1.124 0 2.036-.968 2.036-2.163v-.674c0-1.195-.912-2.163-2.036-2.163zM872.836 295h-10.672a2.163 2.163 0 0 0-2.164 2.163v.674c0 1.195.969 2.163 2.164 2.163h10.672a2.163 2.163 0 0 0 2.164-2.163v-.674a2.163 2.163 0 0 0-2.164-2.163z" fill="#E0E0E0"/><path opacity=".5" d="M1157.26 198.416H926.119a3.248 3.248 0 0 0-3.248 3.247v207.859a3.248 3.248 0 0 0 3.248 3.248h231.141c1.79 0 3.24-1.454 3.24-3.248V201.663a3.243 3.243 0 0 0-3.24-3.247z" fill="url(#paint1_linear)"/><path d="M1153.76 201H930.237a3.237 3.237 0 0 0-3.237 3.237v200.526a3.237 3.237 0 0 0 3.237 3.237h223.523c1.79 0 3.24-1.449 3.24-3.237V204.237a3.238 3.238 0 0 0-3.24-3.237z" fill="#fff"/><path opacity=".5" d="M995.513 245.175h-43.071a3.247 3.247 0 0 0-3.247 3.247v38.114a3.247 3.247 0 0 0 3.247 3.247h43.071a3.247 3.247 0 0 0 3.247-3.247v-38.114a3.246 3.246 0 0 0-3.247-3.247z" fill="#00AA58"/><path d="M1144.85 314H946.148a2.159 2.159 0 0 0-2.148 2.169v.662c0 1.198.962 2.169 2.148 2.169h198.702c1.19 0 2.15-.971 2.15-2.169v-.662c0-1.198-.96-2.169-2.15-2.169zM1144.85 329H946.148a2.159 2.159 0 0 0-2.148 2.169v.662c0 1.198.962 2.169 2.148 2.169h198.702c1.19 0 2.15-.971 2.15-2.169v-.662c0-1.198-.96-2.169-2.15-2.169zM1144.85 349H946.148a2.159 2.159 0 0 0-2.148 2.169v.662c0 1.198.962 2.169 2.148 2.169h198.702c1.19 0 2.15-.971 2.15-2.169v-.662c0-1.198-.96-2.169-2.15-2.169zM1095.84 364H946.155c-1.19 0-2.155.971-2.155 2.169v.662c0 1.198.965 2.169 2.155 2.169h149.685c1.2 0 2.16-.971 2.16-2.169v-.662a2.16 2.16 0 0 0-2.16-2.169z" fill="#E0E0E0"/><path d="M963.854 385.004C834.954 384.251 775 498.416 775 498.416L897.157 563s14.987-46.567 68.199-45.066c3.748.101 7.486.433 11.193.994L1017 392.214a206.099 206.099 0 0 0-53.146-7.21z" fill="#00AA58"/><path d="M1017.47 392L977 518.886c44.16 6.729 57.03 44.114 57.03 44.114L1157 501.344S1110.8 417.42 1017.47 392z" fill="#E0E0E0"/><path d="M976.98 573.304L1018 390l-57.327 178.796a8.977 8.977 0 0 0-1.521 6.866 8.993 8.993 0 0 0 3.89 5.858 8.981 8.981 0 0 0 12.623-2.852v-.025a8.925 8.925 0 0 0 1.323-4.528 4.862 4.862 0 0 0-.008-.811z" fill="#535461"/><defs><linearGradient id="paint0_linear" x1="893.373" y1="445.674" x2="893.373" y2="81" gradientUnits="userSpaceOnUse"><stop stop-color="gray" stop-opacity=".25"/><stop offset=".54" stop-color="gray" stop-opacity=".12"/><stop offset="1" stop-color="gray" stop-opacity=".1"/></linearGradient><linearGradient id="paint1_linear" x1="101921" y1="98753.9" x2="101921" y2="35078" gradientUnits="userSpaceOnUse"><stop stop-color="gray" stop-opacity=".25"/><stop offset=".54" stop-color="gray" stop-opacity=".12"/><stop offset="1" stop-color="gray" stop-opacity=".1"/></linearGradient></defs></svg>