<svg version="1.2" xmlns="http://www.w3.org/2000/svg" viewBox="0 0 1570 1570" width="1570" height="1570">
	<title>safari-pinned-tab-svg</title>
	<style>
		.s0 { fill: #1a3e6e } 
	</style>
	<g id="Layer">
		<path id="Layer" fill-rule="evenodd" class="s0" d="m885.2 5.6c37.4 5.4 82.4 14.8 113.5 23.7 299 86.1 518.4 336.4 562.9 642.6 19.6 134.9 4 271.2-46.2 400.2-12.8 33-44.4 96.4-62.7 125.5-132.5 210.9-345.6 343.4-593.3 369-14 1.4-47.7 2.5-74.9 2.5-52.2 0-82.9-2.3-129.9-10-244.7-40.1-459.6-198.6-571.5-421.9-42.9-85.3-67.5-168.6-79.9-270.9-4.4-36.1-3.7-134.2 1.2-173 33.9-269.5 194.5-495.7 435.9-613.7 90.2-44.2 172.3-67 283.3-78.2 22.3-2.1 137 0.7 161.6 4.2zm-315.4 525.9h-51c-28.4 0-51.8 0.9-52.5 1.8-1.6 2.9-144.2 489.4-144.2 492.2 0 1.6 16.9 2.1 47.3 1.9l47.1-0.7 48.6-166.3c26.7-91.5 49.5-168.8 50.4-172.1 1.4-5.3 1.6-5.6 3.3-1.1 0.9 2.5 18.9 80.3 39.8 172.5l38.4 168.1h45.2l37.6-76.8c76.1-154.7 127.4-258.2 128.1-257.5 0.5 0.5 3.5 71.2 6.8 157.6 3.5 86.1 6.8 161.3 7.5 166.7l1.2 10h90.8l-1.2-19.4c-1.4-24.8-19.6-457.7-19.6-468.7v-8.2l-50.6 0.4-50.8 0.7-74.5 154.3c-40.9 84.8-74.6 154.6-75.1 154.8-0.5 0.5-14.3-57.8-30.9-129.5-16.4-71.6-32.6-141.6-35.8-155.7zm575.2 287.1c-62.7-5-115.6 45.2-115.9 110 0 54.3 37.9 98.3 91.8 106.8 55.2 8.4 109.1-26.3 123.6-79.9 4.2-15.7 3.3-46.1-2.1-61.3-11.5-33.7-39.8-61.8-71.2-71-6.8-1.8-18.5-3.9-26.2-4.6z"/>
	</g>
</svg>