<svg version="1.2" xmlns="http://www.w3.org/2000/svg" viewBox="0 0 1566 1567" width="1566" height="1567">
	<title>Spotify_logo_with_text-svg copy-svg</title>
	<style>
		.s0 { fill: #1ed760 } 
	</style>
	<path id="Layer" fill-rule="evenodd" class="s0" d="m782.8 1566.7c-432.7 0-782.5-350-782.5-783c0-433 349.8-783 782.5-783c432.8 0 782.5 350 782.5 783c0 433-349.7 783-782.5 783zm342.6-503.8c-206-126.3-461.7-155.5-759.9-87.5c-26.4 6.1-42.5 32.2-36.8 58.7c6 26.1 32.2 42.5 58.6 36.5c272.4-62.3 503.6-36.9 687.2 75.7c23.1 14 53.3 6.7 67.3-16.4c14.1-22.8 6.7-53-16.4-67zm112.3-146.1c17.4-28.8 8.3-66.3-20.1-84.1c-241.6-148.4-595.1-190.2-879.2-103.8c-32.2 9.7-50.3 43.9-40.5 76c9.7 32.2 43.5 50.6 76 40.6c248.6-75.4 569.3-37.9 779.7 91.4c28.8 17.8 66.3 8.7 84.1-20.1zm108.2-247.9c20.7-34.5 9.4-79.3-25.5-100.1c-290.5-172.5-749.8-188.9-1026.2-104.9c-38.9 11.8-60.7 52.6-48.9 91.5c11.7 38.5 52.6 60.6 91.4 48.9c240.6-73.4 656.7-59.6 909 90.4c34.8 20.8 79.7 9.1 100.2-25.8z"/>
</svg>