<svg width="107" height="107" fill="none" xmlns="http://www.w3.org/2000/svg"><path d="M70.3 47.4H54.7c-1.2 0-2.1-1-2-2.2L54.6 24c0-1.3-.8-2.3-2.1-2.6-1.2-.3-2.4.3-3 1.5L33.2 58c-.4.8-.3 1.8.2 2.5.5.8 1.3 1.2 2.2 1.2h15.6c1.2 0 2.1 1 2 2.2L51.3 85c0 1.3.8 2.3 2.1 2.6.2 0 .4.1.6.1 1 0 1.9-.6 2.4-1.5l16.4-35.1c.4-.8.3-1.8-.2-2.5-.5-.8-1.4-1.2-2.3-1.2z" fill="#242424"/><path d="M28.9 14.9c2.3 0 4.2-1.9 4.2-4.2 0-2.3-1.9-4.2-4.2-4.2-2.3 0-4.2 1.9-4.2 4.2-.1 2.3 1.8 4.2 4.2 4.2zM10.6 24.6c-2.3 0-4.2 1.9-4.2 4.2 0 2.3 1.9 4.2 4.2 4.2 2.3 0 4.2-1.9 4.2-4.2.1-2.3-1.8-4.2-4.2-4.2zM4.2 57.7a4.2 4.2 0 1 0 0-8.4 4.2 4.2 0 0 0 0 8.4zM10.6 73.9c-2.3 0-4.2 1.9-4.2 4.2 0 2.3 1.9 4.2 4.2 4.2 2.3 0 4.2-1.9 4.2-4.2.1-2.3-1.8-4.2-4.2-4.2zM28.9 92.1c-2.3 0-4.2 1.9-4.2 4.2 0 2.3 1.9 4.2 4.2 4.2 2.3 0 4.2-1.9 4.2-4.2 0-2.3-1.9-4.2-4.2-4.2zM53.5 98.6c-2.3 0-4.2 1.9-4.2 4.2 0 2.3 1.9 4.2 4.2 4.2 2.3 0 4.2-1.9 4.2-4.2 0-2.3-1.9-4.2-4.2-4.2zM78.1 92.1c-2.3 0-4.2 1.9-4.2 4.2 0 2.3 1.9 4.2 4.2 4.2 2.3 0 4.2-1.9 4.2-4.2.1-2.3-1.8-4.2-4.2-4.2zM96.4 73.9c-2.3 0-4.2 1.9-4.2 4.2 0 2.3 1.9 4.2 4.2 4.2 2.3 0 4.2-1.9 4.2-4.2 0-2.3-1.9-4.2-4.2-4.2zM102.8 57.7a4.2 4.2 0 1 0 0-8.4 4.2 4.2 0 0 0 0 8.4zM96 32.8c.7 0 1.5-.2 2.1-.6 1-.6 1.7-1.5 1.9-2.6.3-1.1.1-2.2-.4-3.2C90.1 10.1 72.4 0 53.5 0c-2.3 0-4.2 1.9-4.2 4.2 0 2.3 1.9 4.2 4.2 4.2 15.9 0 30.8 8.5 38.9 22.3.8 1.3 2.2 2.1 3.6 2.1z" fill="#00AA58"/></svg>